HIERARCHY
ROOT ui
{
	 OFFSET 0 0 0
	 CHANNELS 3 XPosition YPosition Z Position
	 EndSite
	 {
	 OFFSET 0 -1 0
	 }
}
ROOT li
{
	 OFFSET 0 0 0
	 CHANNELS 3 XPosition YPosition Z Position
	 EndSite
	 {
	 OFFSET 0 -1 0
	 }
}
ROOT ul
{
	 OFFSET 0 0 0
	 CHANNELS 3 XPosition YPosition Z Position
	 EndSite
	 {
	 OFFSET 0 -1 0
	 }
}
ROOT ll
{
	 OFFSET 0 0 0
	 CHANNELS 3 XPosition YPosition Z Position
	 EndSite
	 {
	 OFFSET 0 -1 0
	 }
}
ROOT tt
{
	 OFFSET 0 0 0
	 CHANNELS 3 XPosition YPosition Z Position
	 EndSite
	 {
	 OFFSET 0 -1 0
	 }
}
ROOT tb
{
	 OFFSET 0 0 0
	 CHANNELS 3 XPosition YPosition Z Position
	 EndSite
	 {
	 OFFSET 0 -1 0
	 }
}
ROOT td
{
	 OFFSET 0 0 0
	 CHANNELS 3 XPosition YPosition Z Position
	 EndSite
	 {
	 OFFSET 0 -1 0
	 }
}
ROOT v
{
	 OFFSET 0 0 0
	 CHANNELS 3 XPosition YPosition Z Position
	 EndSite
	 {
	 OFFSET 0 -1 0
	 }
}
ROOT bn
{
	 OFFSET 0 0 0
	 CHANNELS 3 XPosition YPosition Z Position
	 EndSite
	 {
	 OFFSET 0 -1 0
	 }
}
MOTION
Frames: 27
Frame Time: 0.002
0.03437207412719727	5.3016597032547E-4	0		0.4425144958496094	-2.375421875	0		-0.9615219116210938	0.34000057983398435	0		-0.5720925903320313	-2.939760009765625	0		2.070671142578125	-0.0021180078983306884	0		3.53444775390625	0.35087957763671873	0		4.7582998046875	0.11521234130859374	0		5.91566650390625	0.4488716125488281	0		-0.04247961044311523	5.95896923828125	0		
0.03367901611328125	0.0010063179731369019	0		0.4676846008300781	-2.377443359375	0		-0.9772543334960937	0.33779513549804685	0		-0.57186669921875	-2.9372783203125	0		2.06997802734375	-0.0017235440015792847	0		3.507309814453125	0.32670135498046876	0		4.7473349609375	0.10068685150146485	0		5.90282666015625	0.44033572387695313	0		-0.059079120635986325	5.95174658203125	0		
0.02999247360229492	-0.0014496229887008666	0		0.43694186401367185	-2.378412841796875	0		-0.9878541870117188	0.339502197265625	0		-0.5736331176757813	-2.938751220703125	0		2.071919189453125	-0.02435540008544922	0		3.516576416015625	0.3208886413574219	0		4.73259814453125	0.0952782211303711	0		5.89874658203125	0.4156876220703125	0		-0.07373213195800782	5.94049951171875	0		
0.029424232482910158	-9.473879933357238E-4	0		0.4534186096191406	-2.372238525390625	0		-0.9244243774414063	0.3388419799804688	0		-0.5742799682617188	-2.93823291015625	0		2.080330078125	-0.025074941635131836	0		3.50688818359375	0.314466064453125	0		4.7378828125	0.08754444122314453	0		5.88534033203125	0.42427304077148437	0		-0.07414134216308593	5.94100439453125	0		
-0.04805386352539062	0.002004538059234619	0		0.40879266357421873	-2.37490869140625	0		-0.9939898681640625	0.3366656494140625	0		-0.5717955322265625	-2.934757568359375	0		2.085688232421875	-0.031708642959594725	0		3.51064453125	0.32883642578125	0		4.7422060546875	0.07887469482421874	0		5.88550390625	0.40665554809570315	0		-0.19173146057128906	5.931705078125	0		
0.0284547119140625	1.106489971280098E-4	0		0.437291748046875	-2.374915771484375	0		-0.9952763671875	0.34623724365234376	0		-0.590296875	-2.933874267578125	0		2.104945556640625	-0.046571235656738284	0		3.49580126953125	0.3085862426757813	0		4.74517578125	0.10228137969970703	0		5.8818837890625	0.3981619873046875	0		-0.074896728515625	5.94206640625	0		
0.02803813362121582	6.717550158500671E-4	0		0.41194729614257813	-2.36889404296875	0		-0.9257946166992187	0.3405057067871094	0		-0.5656000366210937	-2.92577392578125	0		2.1045283203125	-0.04603231811523437	0		3.50140576171875	0.3099983215332031	0		4.74133203125	0.07985198211669922	0		5.86832421875	0.3909041748046875	0		-0.07524981689453125	5.94262841796875	0		
0.027654489517211913	0.0012575240135192871	0		0.4613522644042969	-2.3792412109375	0		-0.9261759033203125	0.3410980224609375	0		-0.568040771484375	-2.927146240234375	0		2.104939208984375	-0.05647754669189453	0		3.495006591796875	0.3096722412109375	0		4.7189716796875	0.08181532287597656	0		5.8637763671875	0.3825259704589844	0		-0.07559263610839843	5.94321484375	0		
-0.053752605438232424	3.8104701042175295E-4	0		0.43198208618164063	-2.378089599609375	0		-0.9316134643554688	0.33780859375	0		-0.5355172119140625	-2.932145751953125	0		2.110460693359375	-0.06198443603515625	0		3.48232763671875	0.2934970703125	0		4.7186064453125	0.08240831756591797	0		5.8554140625	0.3832633361816406	0		-0.20833889770507813	5.92329345703125	0		
-0.05004071807861328	0.00494745397567749	0		0.46060870361328127	-2.377989990234375	0		-1.001869140625	0.3447572021484375	0		-0.6037260131835938	-2.92223583984375	0		2.005781005859375	-0.07740586853027344	0		3.46781982421875	0.286391845703125	0		4.7010986328125	0.0753557357788086	0		5.85984716796875	0.3727979736328125	0		-0.19252008056640624	5.93263525390625	0		
-0.05040785217285156	0.0056193571090698245	0		0.4373717956542969	-2.369891357421875	0		-0.927267333984375	0.34303219604492186	0		-0.5511823120117187	-2.92655078125	0		2.030222900390625	-0.08720222473144532	0		3.489822265625	0.3066435852050781	0		4.7007314453125	0.07601902770996094	0		5.85563037109375	0.3815323791503906	0		-0.17769258117675782	5.94302587890625	0		
0.026189849853515624	0.0038860049247741698	0		0.4629573974609375	-2.371673828125	0		-0.9276372680664062	0.3437357177734375	0		-0.564422607421875	-2.9186064453125	0		1.9638079833984374	-0.08827006530761719	0		3.458103271484375	0.28892428588867186	0		4.705509765625	0.08462238311767578	0		5.84696337890625	0.36638125610351563	0		-0.0760374526977539	5.943826171875	0		
0.02275114059448242	6.755170226097107E-4	0		0.45950054931640627	-2.375884033203125	0		-0.93307568359375	0.34056231689453126	0		-0.5329227294921876	-2.92546923828125	0		1.96521923828125	-0.09957200622558594	0		3.45364599609375	0.28473333740234374	0		4.69001708984375	0.07863722229003907	0		5.84659912109375	0.3671153259277344	0		-0.07640332794189453	5.94455908203125	0		
0.015290020942687988	-0.004431074142456055	0		0.4571170654296875	-2.377083740234375	0		-0.9334266967773438	0.34132254028320314	0		-0.568206298828125	-2.92105615234375	0		1.970756103515625	-0.10491783905029296	0		3.458163818359375	0.27840878295898436	0		4.69551611328125	0.07129624938964843	0		5.8500791015625	0.35881375122070314	0		-0.0767635955810547	5.9453203125	0		
0.014958160400390625	-0.0036417109966278075	0		0.45882937622070313	-2.374330810546875	0		-0.9337596435546875	0.3421090393066406	0		-0.5576990356445313	-2.92947216796875	0		1.960183837890625	-0.1169338150024414	0		3.443982666015625	0.28746826171875	0		4.68731640625	0.07924776458740235	0		5.8507275390625	0.35860232543945314	0		-0.20851959228515626	5.92555615234375	0		
0.02175532341003418	0.0030427770614624024	0		0.4336234436035156	-2.368047607421875	0		-0.9290008544921875	0.3468271484375	0		-0.598657470703125	-2.909897216796875	0		1.969831787109375	-0.11829564666748046	0		3.4432763671875	0.26730242919921876	0		4.68287255859375	0.07315930938720704	0		5.8414326171875	0.3606106262207031	0		-0.06126845932006836	5.956625	0		
0.024529582977294923	0.007828306198120118	0		0.4602755126953125	-2.3707060546875	0		-0.9293024291992188	0.347664306640625	0		-0.5640039672851562	-2.912710205078125	0		1.96134765625	-0.1272924575805664	0		3.438106689453125	0.2752544860839844	0		4.67157421875	0.07423091888427734	0		5.84596240234375	0.35239166259765625	0		-0.07680187225341797	5.94674853515625	0		
-0.06391729354858398	0.0013365709781646728	0		0.45592129516601565	-2.373760986328125	0		-0.9387463989257813	0.3406948547363281	0		-0.5663180541992188	-2.91380908203125	0		1.9497950439453124	-0.14020648193359375	0		3.447548095703125	0.26195794677734374	0		4.67814794921875	0.06799634552001953	0		5.85366455078125	0.3531441955566406	0		-0.0771314926147461	5.94761474609375	0		
0.013752937316894531	-2.2652499377727507E-4	0		0.4556374816894531	-2.372868408203125	0		-0.9441010131835937	0.3386729736328125	0		-0.5665987548828125	-2.91292236328125	0		1.938239501953125	-0.15309794616699218	0		3.4242900390625	0.2652958984375	0		4.6668701171875	0.07011811065673829	0		5.8453662109375	0.35421707153320314	0		-0.07746360778808593	5.94850439453125	0		
-0.06451994323730469	0.003135901927947998	0		0.40144561767578124	-2.36595166015625	0		-1.009247314453125	0.34878778076171874	0		-0.5442297973632813	-2.93043994140625	0		1.9545596923828126	-0.17249221801757814	0		3.433721435546875	0.25203762817382813	0		4.671396484375	0.06195767974853516	0		5.84989111328125	0.34606195068359374	0		-0.2423256378173828	5.92247314453125	0		
0.03805819702148437	-0.0028539469242095947	0		0.4591109313964844	-2.367103515625	0		-0.9305167846679687	0.351241455078125	0		-0.583155517578125	-2.908791259765625	0		1.9542491455078126	-0.17156098937988282	0		3.43674462890625	0.2709129638671875	0		4.6683466796875	0.07694798278808594	0		5.848896484375	0.3640169372558594	0		-0.20758041381835937	5.92674755859375	0		
0.023009689331054687	0.012363784790039063	0		0.45879684448242186	-2.3661630859375	0		-0.9359017944335938	0.34827703857421877	0		-0.5623992309570313	-2.904241455078125	0		1.9595823974609374	-0.18973040771484376	0		3.41012109375	0.25533758544921875	0		4.6659423828125	0.07292246246337891	0		5.8444365234375	0.35702804565429686	0		-0.07842470550537109	5.9512822265625	0		
0.02232805061340332	-0.006682228088378906	0		0.454404052734375	-2.36913916015625	0		-0.94533837890625	0.34240036010742186	0		-0.563757568359375	-2.90526953125	0		1.9252410888671876	-0.1901543426513672	0		3.394815673828125	0.256553466796875	0		4.65463525390625	0.07405863189697266	0		5.85212744140625	0.35780548095703124	0		-0.07772808074951172	5.95121484375	0		
-0.06575885009765625	0.006910905838012695	0		0.4540793151855469	-2.368186767578125	0		-0.9456428833007813	0.343363037109375	0		-0.5661232299804687	-2.906272216796875	0		1.9287828369140625	-0.19728622436523438	0		3.418245361328125	0.24303900146484375	0		4.6550302734375	0.05896365737915039	0		5.8518232421875	0.3587174072265625	0		-0.09219324493408203	5.94143359375	0		
0.011903438568115234	0.005412970066070557	0		0.45374710083007813	-2.367236572265625	0		-0.9459446411132812	0.34432894897460936	0		-0.5864953002929687	-2.906937255859375	0		1.91106787109375	-0.21803184509277343	0		3.409205078125	0.25812124633789063	0		4.647857421875	0.06699592590332032	0		5.84352294921875	0.359756103515625	0		-0.20965409851074218	5.9315732421875	0		
-0.051628341674804686	-0.005460504055023193	0		0.42850787353515624	-2.3608291015625	0		-0.9411845092773438	0.3481987609863281	0		-0.5370171508789062	-2.91591064453125	0		1.9245751953125	-0.2273719024658203	0		3.40853564453125	0.23902096557617186	0		4.65855615234375	0.06766777038574219	0		5.856375	0.3683707580566406	0		-0.20986262512207032	5.932525390625	0		
0.026034950256347656	-0.007979772090911864	0		0.45511492919921875	-2.363405029296875	0		-0.9465184326171875	0.3462474670410156	0		-0.630876953125	-2.88821240234375	0		1.9130255126953124	-0.2402657012939453	0		3.408254638671875	0.23988999938964845	0		4.64216259765625	0.06281205368041992	0		5.8509482421875	0.36128628540039065	0		-0.0766435546875	5.95297802734375	0		
